	<svg
					width="135"
					height="26"
					xmlns="http://www.w3.org/2000/svg"
					xmlns:xlink="http://www.w3.org/1999/xlink"
				>
					<defs>
						<path id="a" d="M0 .06h133.65v25.02H0V.06z" />
					</defs>
					<g transform="translate(.5 .5)" fill="none" fill-rule="evenodd">
						<mask id="b" fill="#fff">
							<use xlink:href="#a" />
						</mask>
						<path
							d="M126.206 22.758s7.23-.158 7.389-.158c.16 2.317.039 2.48-1.278 2.48h-9.226V.216s1.239-.117 1.677-.117c1.438 0 1.438.117 1.438 2.356v20.303zm-15.564-5.235l-3.035-14.948h-1.277l-2.716 14.948h7.028zm4.995 7.354s-1.48.203-1.759.203c-1.399 0-1.636-.043-2.036-1.72l-.719-3.637h-7.908c0-.079-.999 5.357-.999 5.357H99.14c-.12 0 5.353-25.02 5.353-25.02h5.353l5.792 24.817zM87.273 11.928s1.557-1.76 1.557-4.715c0-3.798-1.359-5.116-5.073-5.116-.877 0-2.676.118-2.676.118V12.57s1.037.237 2.517.237c2.514 0 3.675-.879 3.675-.879zM85.156.06c5.232 0 7.067 2.598 7.067 7.073 0 4.995-4.553 6.836-4.631 6.876 0 0 4.91 10.589 4.91 10.753 0 0-1.476.319-2.277.319-1.355 0-1.395-.28-1.833-1.399l-3.356-8.755c-.64.12-1.398.159-1.957.159l-1.998-.039V25.08h-3.115V.06h7.19zm-23.632 22.7l8.826-.159c.08 2.161.12 2.48-1.317 2.48h-8.108c-2.396 0-2.517-.28-2.517-2.36V.06h12.023c.16 2.356.04 2.356-1.36 2.356l-7.547-.078v8.832h7.669c.16 2.357-.04 2.357-1.24 2.357l-6.429-.118v9.35zM36.66 2.295C36.497.137 36.54.059 38.097.059h13.06c.077 2.197.039 2.237-1.52 2.197l-4.272-.041V25.08H42.25V2.136l-5.59.16zM28.1 17.523L25.067 2.575h-1.279l-2.715 14.948H28.1zm4.996 7.354s-1.48.203-1.76.203c-1.398 0-1.635-.043-2.036-1.72l-.718-3.637h-7.91c0-.079-.997 5.357-.997 5.357h-3.077c-.12 0 5.353-25.02 5.353-25.02h5.353l5.792 24.817zM3.115 22.758s7.23-.158 7.389-.158c.16 2.317.039 2.48-1.279 2.48H0V.216S1.24.099 1.68.099c1.436 0 1.436.117 1.436 2.356v20.303z"
							fill="#1D96E8"
							mask="url(#b)"
						/>
					</g>
				</svg>